<svg width="36" height="36" viewBox="0 0 36 36" fill="none" xmlns="http://www.w3.org/2000/svg">
<path fill-rule="evenodd" clip-rule="evenodd" d="M10.5022 0.721375H10.5362H24.8053H24.8393C26.4907 0.721371 27.7761 0.721368 28.8072 0.80561C29.8541 0.891145 30.7047 1.06725 31.4697 1.45708C32.7398 2.10423 33.7725 3.13684 34.4196 4.40694C34.8094 5.17202 34.9855 6.02262 35.0711 7.06951C35.1553 8.10057 35.1553 9.38593 35.1553 11.0373V11.0374V11.0374V11.0714V25.0142V25.0482V25.0482V25.0483C35.1553 26.6997 35.1553 27.985 35.0711 29.0161C34.9855 30.063 34.8094 30.9136 34.4196 31.6787C33.7725 32.9488 32.7398 33.9814 31.4697 34.6285C30.7047 35.0184 29.8541 35.1945 28.8072 35.28C27.7761 35.3642 26.4908 35.3642 24.8394 35.3642H24.8393H24.8393H24.8053H10.5362H10.5022H10.5021H10.5021C8.85071 35.3642 7.56535 35.3642 6.53429 35.28C5.4874 35.1945 4.63681 35.0184 3.87172 34.6285C2.60163 33.9814 1.56901 32.9488 0.921863 31.6787C0.532032 30.9136 0.355928 30.063 0.270393 29.0161C0.18615 27.985 0.186153 26.6996 0.186157 25.0482V25.0142V11.0714V11.0374C0.186153 9.38599 0.18615 8.10059 0.270393 7.06951C0.355928 6.02262 0.532032 5.17202 0.921863 4.40694C1.56901 3.13684 2.60163 2.10423 3.87172 1.45708C4.63681 1.06725 5.4874 0.891145 6.5343 0.80561C7.56538 0.721368 8.85078 0.721371 10.5022 0.721375ZM6.65644 2.30063C5.70231 2.37858 5.07109 2.52946 4.55271 2.79359C3.56486 3.29693 2.76171 4.10007 2.25837 5.08792C1.99424 5.60631 1.84337 6.23753 1.76541 7.19166C1.68674 8.15455 1.68616 9.37884 1.68616 11.0714V25.0142C1.68616 26.7068 1.68674 27.9311 1.76541 28.8939C1.84337 29.8481 1.99424 30.4793 2.25837 30.9977C2.76171 31.9855 3.56486 32.7887 4.55271 33.292C5.07109 33.5561 5.70231 33.707 6.65644 33.785C7.61933 33.8636 8.84362 33.8642 10.5362 33.8642H24.8053C26.4978 33.8642 27.7221 33.8636 28.685 33.785C29.6392 33.707 30.2704 33.5561 30.7888 33.292C31.7766 32.7887 32.5798 31.9855 33.0831 30.9977C33.3472 30.4793 33.4981 29.8481 33.5761 28.8939C33.6547 27.9311 33.6553 26.7068 33.6553 25.0142V11.0714C33.6553 9.37884 33.6547 8.15455 33.5761 7.19166C33.4981 6.23753 33.3472 5.60631 33.0831 5.08792C32.5798 4.10007 31.7766 3.29693 30.7888 2.79359C30.2704 2.52946 29.6392 2.37858 28.685 2.30063C27.7221 2.22196 26.4978 2.22137 24.8053 2.22137H10.5362C8.84362 2.22137 7.61933 2.22196 6.65644 2.30063ZM15.356 18.9499L15.3959 18.95H19.9455L19.9854 18.9499H19.9855C20.3364 18.9499 20.5596 18.9499 20.7549 18.966C23.0701 19.1569 24.9075 20.9944 25.0984 23.3096C25.1145 23.5049 25.1145 23.7281 25.1145 24.0791L25.1145 24.119L25.1145 24.1497C25.1145 24.3142 25.1146 24.4409 25.1052 24.5545C24.9947 25.8949 23.9309 26.9587 22.5905 27.0692C22.4769 27.0786 22.3502 27.0786 22.1857 27.0785L22.155 27.0785H13.1864L13.1557 27.0785H13.1557H13.1556C12.9911 27.0786 12.8644 27.0786 12.7508 27.0692C11.4105 26.9587 10.3467 25.8949 10.2361 24.5545C10.2268 24.4409 10.2268 24.3142 10.2268 24.1497L10.2268 24.119L10.2268 24.0791C10.2268 23.7281 10.2268 23.5049 10.2429 23.3096C10.4338 20.9944 12.2713 19.1569 14.5865 18.966C14.7817 18.9499 15.0049 18.9499 15.3559 18.9499H15.356ZM15.3959 20.45C14.9918 20.45 14.8353 20.4506 14.7097 20.4609C13.1257 20.5916 11.8685 21.8488 11.7378 23.4328C11.7275 23.5584 11.7268 23.7149 11.7268 24.119C11.7268 24.3285 11.7275 24.3877 11.7311 24.4313C11.7813 25.0405 12.2648 25.5241 12.8741 25.5743C12.9176 25.5779 12.9768 25.5785 13.1864 25.5785H22.155C22.3645 25.5785 22.4237 25.5779 22.4672 25.5743C23.0765 25.5241 23.56 25.0405 23.6103 24.4313C23.6139 24.3877 23.6145 24.3285 23.6145 24.119C23.6145 23.7149 23.6139 23.5584 23.6035 23.4328C23.4729 21.8488 22.2157 20.5916 20.6316 20.4609C20.506 20.4506 20.3495 20.45 19.9455 20.45H15.3959ZM15.0737 11.4142C15.0737 10.0049 16.2295 8.84991 17.6706 8.84991C19.1118 8.84991 20.2676 10.0049 20.2676 11.4142C20.2676 12.8235 19.1118 13.9785 17.6706 13.9785C16.2295 13.9785 15.0737 12.8235 15.0737 11.4142ZM17.6706 7.34991C15.4149 7.34991 13.5737 9.16265 13.5737 11.4142C13.5737 13.6658 15.4149 15.4785 17.6706 15.4785C19.9264 15.4785 21.7676 13.6658 21.7676 11.4142C21.7676 9.16265 19.9264 7.34991 17.6706 7.34991Z" fill="#5C5151"/>
</svg>
