<svg width="36" height="36" viewBox="0 0 36 36" fill="none" xmlns="http://www.w3.org/2000/svg">
<path d="M5.56809 19.4571C2.96934 15.179 1.36241 10.1106 0.925969 4.4256C0.846793 3.39427 0.807206 2.87861 1.01183 2.41743C1.18313 2.03137 1.51944 1.66825 1.89126 1.4679C2.33542 1.22858 2.89197 1.22858 4.00505 1.22858H7.7038C8.59133 1.22858 9.03509 1.22858 9.40504 1.38312C9.73149 1.51948 10.0159 1.74 10.2293 2.02217C10.4712 2.34195 10.5817 2.77172 10.8029 3.63125L11.9071 7.923C12.2129 9.11175 12.3658 9.70613 12.3438 10.2891C12.3242 10.8052 12.2049 11.3127 11.9924 11.7835C11.7524 12.3152 11.3506 12.7792 10.5471 13.7071L5.56809 19.4571ZM5.56809 19.4571C8.04961 23.5424 11.4355 26.907 15.5701 29.4M15.5701 29.4C20.1157 32.1407 25.5662 33.8278 31.7149 34.2605C32.7542 34.3336 33.2738 34.3702 33.7322 34.1644C34.1175 33.9914 34.4758 33.6574 34.6754 33.2852C34.9129 32.8424 34.9129 32.2855 34.9129 31.1718C34.9129 30.0474 34.9129 28.8686 34.9129 27.7724C34.9129 26.8737 34.9129 26.4243 34.7553 26.0511C34.6161 25.7218 34.3913 25.4359 34.1042 25.223C33.7788 24.9816 33.342 24.8755 32.4683 24.6633L27.5603 23.471C26.5014 23.2138 25.9719 23.0851 25.4487 23.0966C24.985 23.1067 24.5267 23.1974 24.0942 23.3646C23.606 23.5532 23.1654 23.8738 22.2842 24.515L15.5701 29.4Z" stroke="#5C5151" stroke-width="1.5" stroke-linecap="round" stroke-linejoin="round"/>
</svg>
