<svg width="33" height="39" viewBox="0 0 33 39" fill="none" xmlns="http://www.w3.org/2000/svg">
<path d="M27.3807 5.09502C21.152 -0.443458 11.0929 -0.443458 4.86418 5.09502C-1.33119 10.6335 -1.33119 19.6559 4.86418 25.2241L16.1225 35.0505L27.3474 25.1944C33.5761 19.6559 33.5761 10.6335 27.3807 5.09502ZM25.4821 23.4971L16.1225 31.7155L6.76277 23.5269C4.26463 21.2936 2.89898 18.3159 2.89898 15.1596C2.89898 12.0032 4.26463 9.02556 6.76277 6.7923C9.2609 4.55904 12.5918 3.30842 16.1225 3.30842C19.6532 3.30842 22.984 4.52927 25.4821 6.76252C27.9803 8.99578 29.3459 11.9735 29.3459 15.1298C29.3792 18.3159 27.9803 21.2638 25.4821 23.4971Z" fill="#5C5151"/>
<path d="M16.1224 9.0553C12.3586 9.0553 9.32751 11.7948 9.32751 15.1298C9.32751 18.4648 12.3586 21.234 16.1224 21.234C19.8863 21.234 22.9174 18.4945 22.9174 15.1595C22.9174 11.8245 19.8863 9.0553 16.1224 9.0553ZM16.1224 18.8519C13.8575 18.8519 11.9922 17.1844 11.9922 15.1595C11.9922 13.1347 13.8575 11.4374 16.1224 11.4374C18.3874 11.4374 20.2527 13.1049 20.2527 15.1298C20.2527 17.1546 18.3874 18.8519 16.1224 18.8519Z" fill="#5C5151"/>
<path d="M28.4466 36.0629H3.79834V38.445L15.2698 38.7428L28.4466 38.445V36.0629Z" fill="#5C5151"/>
</svg>
