<svg width="90" height="89" viewBox="0 0 90 89" fill="none" xmlns="http://www.w3.org/2000/svg">
<g clip-path="url(#clip0_160_495)">
<path d="M44.52 88.0292C19.9361 88.0292 0 68.3195 0 44.0146C0 19.7097 19.9361 0 44.52 0C69.104 0 89.04 19.7097 89.04 44.0146C89.04 68.3195 69.104 88.0292 44.52 88.0292Z" fill="url(#paint0_linear_160_495)"/>
<path d="M44.52 19.384C52.6315 19.384 53.5931 19.4104 56.7986 19.5601C59.7636 19.6921 61.3752 20.1851 62.4437 20.5988C63.8594 21.1446 64.8745 21.796 65.9341 22.8436C66.9937 23.8911 67.6526 24.8946 68.2046 26.2943C68.6231 27.3507 69.1128 28.944 69.2553 31.8754C69.3977 35.0444 69.4333 35.9951 69.4333 44.0146C69.4333 52.034 69.4066 52.9848 69.2553 56.1538C69.1217 59.0852 68.6231 60.6785 68.2046 61.7349C67.6526 63.1345 66.9937 64.1381 65.9341 65.1856C64.8745 66.2332 63.8594 66.8846 62.4437 67.4303C61.3752 67.8441 59.7636 68.3282 56.7986 68.4691C53.5931 68.6099 52.6315 68.6451 44.52 68.6451C36.4084 68.6451 35.4468 68.6187 32.2413 68.4691C29.2763 68.337 27.6647 67.8441 26.5962 67.4303C25.1805 66.8846 24.1654 66.2332 23.1058 65.1856C22.0463 64.1381 21.3874 63.1345 20.8353 61.7349C20.4168 60.6785 19.9271 59.0852 19.7846 56.1538C19.6422 52.9848 19.6066 52.034 19.6066 44.0146C19.6066 35.9951 19.6333 35.0444 19.7846 31.8754C19.9182 28.944 20.4168 27.3507 20.8353 26.2943C21.3874 24.8946 22.0463 23.8911 23.1058 22.8436C24.1654 21.796 25.1805 21.1446 26.5962 20.5988C27.6647 20.1851 29.2763 19.7009 32.2413 19.5601C35.4468 19.4104 36.4084 19.384 44.52 19.384ZM44.52 13.9702C36.266 13.9702 35.2331 14.0054 31.992 14.1551C28.7599 14.3047 26.5517 14.8065 24.6106 15.5547C22.6161 16.3118 20.9155 17.3417 19.2326 19.0143C17.5408 20.6868 16.508 22.3594 15.7244 24.3401C14.9765 26.2503 14.4601 28.4334 14.3087 31.6377C14.1573 34.8419 14.1217 35.8631 14.1217 44.0234C14.1217 52.1837 14.1573 53.2048 14.3087 56.4091C14.4601 59.6045 14.9676 61.7877 15.7244 63.7067C16.4991 65.6698 17.5408 67.3511 19.2326 69.0149C20.9244 70.6874 22.6161 71.7086 24.6195 72.4832C26.5517 73.2227 28.7599 73.7332 32.0009 73.8829C35.242 74.0325 36.2749 74.0677 44.5289 74.0677C52.7829 74.0677 53.8157 74.0325 57.0568 73.8829C60.2889 73.7332 62.4971 73.2315 64.4382 72.4832C66.4238 71.7174 68.1245 70.6874 69.8073 69.0149C71.4991 67.3423 72.532 65.6698 73.3155 63.6891C74.0634 61.7789 74.5799 59.5957 74.7312 56.3915C74.8826 53.1872 74.9182 52.1661 74.9182 44.0058C74.9182 35.8455 74.8826 34.8243 74.7312 31.6201C74.5799 28.4246 74.0723 26.2415 73.3155 24.3224C72.5409 22.3594 71.4991 20.678 69.8073 19.0143C68.1156 17.3417 66.4238 16.3206 64.4204 15.5459C62.4882 14.8065 60.28 14.2959 57.039 14.1463C53.8068 14.0054 52.774 13.9702 44.52 13.9702Z" fill="white"/>
<path d="M44.52 28.583C35.9009 28.583 28.9113 35.4933 28.9113 44.0145C28.9113 52.5358 35.9009 59.446 44.52 59.446C53.139 59.446 60.1287 52.5358 60.1287 44.0145C60.1287 35.4933 53.139 28.583 44.52 28.583ZM44.52 54.0322C38.9283 54.0322 34.3872 49.5516 34.3872 44.0145C34.3872 38.4775 38.9283 33.9968 44.52 33.9968C50.1117 33.9968 54.6527 38.4775 54.6527 44.0145C54.6527 49.5516 50.1117 54.0322 44.52 54.0322Z" fill="white"/>
<path d="M60.743 31.5851C62.7592 31.5851 64.3937 29.9692 64.3937 27.9759C64.3937 25.9826 62.7592 24.3667 60.743 24.3667C58.7269 24.3667 57.0924 25.9826 57.0924 27.9759C57.0924 29.9692 58.7269 31.5851 60.743 31.5851Z" fill="white"/>
</g>
<defs>
<linearGradient id="paint0_linear_160_495" x1="13.0396" y1="75.1376" x2="75.2816" y2="12.1809" gradientUnits="userSpaceOnUse">
<stop stop-color="#FFD521"/>
<stop offset="0.0551048" stop-color="#FFD020"/>
<stop offset="0.1241" stop-color="#FEC01E"/>
<stop offset="0.2004" stop-color="#FCA71B"/>
<stop offset="0.2821" stop-color="#FA8316"/>
<stop offset="0.3681" stop-color="#F85510"/>
<stop offset="0.4563" stop-color="#F51E09"/>
<stop offset="0.5" stop-color="#F30005"/>
<stop offset="0.5035" stop-color="#F20007"/>
<stop offset="0.5966" stop-color="#E1003B"/>
<stop offset="0.6879" stop-color="#D30067"/>
<stop offset="0.7757" stop-color="#C70088"/>
<stop offset="0.8589" stop-color="#BF00A0"/>
<stop offset="0.9357" stop-color="#BB00AF"/>
<stop offset="1" stop-color="#B900B4"/>
</linearGradient>
<clipPath id="clip0_160_495">
<rect width="89.04" height="88.0292" fill="white"/>
</clipPath>
</defs>
</svg>
