<?xml version="1.0" encoding="utf-8"?>
<!-- Generator: Adobe Adobe Illustrator 24.2.0, SVG Export Plug-In . SVG Version: 6.00 Build 0)  -->
<svg version="1.1" xmlns="http://www.w3.org/2000/svg" xmlns:xlink="http://www.w3.org/1999/xlink" x="0px" y="0px" width="1920px"
	 height="1080px" viewBox="0 0 1920 1080" style="enable-background:new 0 0 1920 1080;" xml:space="preserve">
<style type="text/css">
	.st0{display:none;}
	.st1{display:inline;opacity:0.2;}
	.st2{fill:url(#SVGID_5_);}
	.st3{stroke:#7575FF;stroke-miterlimit:10;}
	.st4{font-family:'MendlSans-DuskThin';}
	.st5{font-size:289.322px;}
	.st6{fill:url(#SVGID_6_);}
</style>
<g id="Layer_1" class="st0">
</g>
<g id="Layer_1_copy" class="st0">
</g>
<g id="Layer_3">
	
		<radialGradient id="SVGID_2_" cx="534.8593" cy="349.3581" r="277.1955" gradientTransform="matrix(2.1428 0 0 1.1223 -382.8988 95.7234)" gradientUnits="userSpaceOnUse">
		<stop  offset="0" style="stop-color:#7575FF"/>
		<stop  offset="1" style="stop-color:#AA7DFF"/>
	</radialGradient>
	<path style="fill:url(#SVGID_2_);" d="M212.16,589.54l7.37-67.78c0.21-1.91,1.31-3.56,2.95-4.41
		c14.45-7.44,84.84-43.5,111.27-52.99c43.51-15.63,134.55-34.07,180.4-37.44c50.82-3.73,152.67,8.93,203.25,15.31
		c48.24,6.08,143.82,25.51,192.21,30.09c29.23,2.76,88,2.92,117.34,3.03c36.6,0.13,110.47-2.04,145.98-11.37
		c39.34-10.34,148.42-68.9,148.42-68.9s-99.52,34.24-133.84,40.3c-37.22,6.57-113.01,9.22-150.75,8.54
		c-34.06-0.62-102.26-3.08-136.08-7.33c-24.45-3.07-72.7-13.75-96.98-18.03c-55.37-9.75-166.28-32.32-222.42-32.49
		c-44.18-0.14-132.91,9.99-175.4,22.77c-25.04,7.53-72.95,29.69-96.26,41.91C282.99,464.71,205,511.83,205,511.83"/>
	<g id="Layer_4">
		<text transform="matrix(0.9046 0 0 1 239.7309 743.5992)" class="st3 st4 st5">INSTRUCTOR</text>
	</g>
	<g id="Layer_2">
		
			<radialGradient id="SVGID_4_" cx="677.0621" cy="294.7069" r="524.2671" gradientTransform="matrix(2.1142 0 0 0.537 -471.4969 235.3279)" gradientUnits="userSpaceOnUse">
			<stop  offset="0" style="stop-color:#7575FF"/>
			<stop  offset="1" style="stop-color:#B165F0"/>
		</radialGradient>
		<path style="fill:url(#SVGID_4_);" d="M1680.94,641.39c0,0,16.68-29.13,20.63-43.85c2.9-10.82,11.2-32.08,13.02-53.5
			c1.82-21.43-2.82-49.54-4.98-68.43c-3.37-29.51-26.16-94.02-31.64-109.88c-0.58-1.68-5.58,0.29-7.05,1.07
			c-10.28,5.5-54.92,15.14-71.34,17.55c-33.83,4.96-102.61,6.02-136.24-0.77c-76.77-15.51-222.35-90.86-299.02-107.06
			c-64.15-13.55-195.66-13.69-260.22-3.61c-39.86,6.22-116.9,36.83-155.31,51.55c-1.32,0.51-3.97,1.49-5.29,2.02
			c-25.02,10.22-99.45,43.2-99.45,43.2s81.28-23.58,108.37-31.44c3.49-1.01,7-1.87,10.53-2.54c37.42-7.17,112.16-25.77,150.05-28.79
			c60.99-4.85,184.09-4.93,244.37,7.67c74.37,15.54,215.57,89.09,290.15,103.01c38.82,7.24,118.33,5.17,156.98-3.38
			c15.4-3.4,61.09-17.39,61.09-17.39c1.37-0.49,1.87-1.24,2.44,0.4c5,14.26,23.45,73.92,26.65,98.63c1.11,8.57,3.49,23.7,3.82,35.47
			c0.54,19.02-1.69,40.93-4.13,54.62C1691.94,599.63,1680.94,641.39,1680.94,641.39z"/>
	</g>
</g>
</svg>
