<svg width="48" height="37" viewBox="0 0 48 37" fill="none" xmlns="http://www.w3.org/2000/svg">
<path fill-rule="evenodd" clip-rule="evenodd" d="M46.8488 25.0023C46.5301 24.0251 45.9776 23.1298 45.2088 22.3201C44.4034 21.4739 43.3451 20.819 42.0326 20.3455C40.7189 19.8758 39.0321 19.6378 36.9534 19.6378H34.1325C34.4688 16.1799 35.7054 13.237 37.8448 10.804C39.9804 8.37868 42.9417 6.24421 46.7274 4.41322L44.4312 0.869629C39.4468 2.98395 35.1819 6.07672 31.639 10.1618C28.0974 14.2507 26.3335 18.3017 26.3335 22.3201C26.3335 26.6369 27.3564 30.0231 29.4187 32.4673C31.481 34.9116 34.4347 36.1293 38.2747 36.1293C40.7113 36.1293 42.8279 35.3196 44.6285 33.7014C46.4265 32.0858 47.328 30.1931 47.328 28.0347C47.328 26.9933 47.1699 25.9795 46.8488 25.0023ZM21.0596 25.0023C20.7384 24.0251 20.1871 23.1298 19.4171 22.3201C18.6142 21.4739 17.5546 20.819 16.2409 20.3455C14.9297 19.8758 13.2429 19.6378 11.163 19.6378H8.34077C8.67837 16.1799 9.91371 13.237 12.0518 10.804C14.1887 8.37868 17.1525 6.24421 20.9357 4.41322L18.6408 0.869629C13.6551 2.98395 9.39276 6.07672 5.84858 10.1618C2.30693 14.2507 0.544312 18.3017 0.544312 22.3201C0.544312 26.6369 1.5647 30.0231 3.62823 32.4673C5.68798 34.9116 8.64171 36.1293 12.4843 36.1293C14.9196 36.1293 17.0387 35.3196 18.8392 33.7014C20.6373 32.0858 21.5375 30.1931 21.5375 28.0347C21.5375 26.9933 21.377 25.9795 21.0596 25.0023Z" fill="black"/>
</svg>
